<svg width="242" height="400" viewBox="0 0 242 400" fill="none" xmlns="http://www.w3.org/2000/svg">
<path d="M175.838 353.726L176.551 108.387C198.458 104.328 214.09 92.2358 214.163 67.0398C214.233 42.9891 200.107 13.7666 179.811 0.230181L179.665 50.4C179.648 56.2149 175.006 60.9054 169.297 60.8765L143.839 60.7493C138.13 60.7211 133.515 55.9839 133.532 50.169L133.677 0C113.303 13.3328 99.0077 42.4129 98.9376 66.4636C98.8644 91.6596 114.427 103.907 136.309 108.186L135.597 353.525C135.564 364.842 144.546 374.061 155.658 374.117C166.77 374.172 175.805 365.043 175.838 353.726Z" fill="#BED0E0"/>
<path d="M179.811 0.231018L179.665 50.4008C179.654 54.3703 179.351 65.4721 179.343 68.3212C179.27 93.5171 158.217 104.126 136.31 108.186L135.598 353.525C135.594 354.757 136.416 357.442 136.208 358.613C138.403 367.481 146.27 374.07 155.659 374.117C166.771 374.172 175.806 365.043 175.838 353.726L176.551 108.387C198.458 104.328 214.09 92.2358 214.163 67.0399C214.233 42.9892 200.107 13.7674 179.811 0.231018Z" fill="#AEC2D4"/>
<path d="M16.4008 225.686L16.194 351.79C16.1771 364.135 25.9292 374.152 37.9308 374.117C49.8375 374.082 59.4688 364.161 59.4849 351.913L59.6918 225.56L16.4008 225.686Z" fill="#365DCA"/>
<path d="M35.5469 225.631L35.3401 351.913C35.3296 359.587 31.5445 366.346 25.7916 370.334C29.2596 372.734 33.4374 374.13 37.9308 374.117C49.8374 374.082 59.468 364.161 59.4849 351.913L59.6918 225.56L35.5469 225.631Z" fill="#284EB8"/>
<path d="M67.674 0L67.691 61.5171L52.5054 87.6177L52.5956 213.327L23.1847 213.25L23.0938 87.6821L7.89458 61.6909L7.87848 0.174648L67.674 0Z" fill="#E8F4FF"/>
<path d="M67.691 61.5171L67.6741 0L37.7682 0.0869215L37.7843 61.5171L22.8274 87.2266L23.0938 87.6821L23.1847 213.25L52.5956 213.327L52.5055 87.6177L67.691 61.5171Z" fill="#DCEAF7"/>
<path d="M13.7642 225.706L62.0169 225.565C69.6161 225.543 75.7755 219.188 75.773 211.371V211.369C75.7706 203.552 69.6089 197.233 62.0089 197.255L13.7569 197.128C6.15855 197.151 -0.00241378 203.773 7.09437e-07 211.59V211.593C0.0024152 219.41 6.16419 225.729 13.7642 225.706Z" fill="#66A8FF"/>
<path d="M62.0097 197.256L13.7578 197.128C13.398 197.129 13.0447 197.159 12.6922 197.189L37.864 197.255C45.464 197.232 51.6258 203.552 51.6282 211.369V211.371C51.6306 219.189 45.4712 225.544 37.8721 225.565L12.4089 225.639C12.8547 225.683 13.3063 225.707 13.7642 225.706L62.0169 225.565C69.6161 225.543 75.7755 219.188 75.7731 211.371V211.369C75.7714 203.553 69.6089 197.234 62.0097 197.256Z" fill="#4D99FF"/>
<path d="M67.674 0L7.87846 0.174648L7.83258 21.5678L67.678 21.8471L67.674 0Z" fill="#BED0E0"/>
<path d="M367.367 341.197H105.673L105.66 309.532C105.629 237.538 164.187 179.151 236.452 179.12C308.716 179.09 367.323 237.428 367.354 309.421L367.367 341.197Z" fill="#FFB938"/>
<path d="M264.396 341.197L264.325 173.289C246.856 164.212 226.035 164.221 208.573 173.312L208.644 341.197H264.396Z" fill="#FFE645"/>
<path d="M264.325 173.288C250.655 166.185 234.933 164.646 220.374 168.67C224.406 169.783 228.348 171.322 232.132 173.288L232.203 341.196H264.396L264.325 173.288Z" fill="#F5D60C"/>
<path d="M98.3823 309.535L98.3952 341.197H158.624L158.567 206.018C158.565 201.773 153.629 199.387 150.304 202.04C118.66 227.29 98.3646 266.096 98.3823 309.535Z" fill="#FFE645"/>
<path d="M158.567 206.018C158.566 201.773 153.63 199.387 150.305 202.04C141.355 209.181 133.315 217.409 126.383 226.517L126.431 341.197H158.625L158.567 206.018Z" fill="#F5D60C"/>
<path d="M321.672 388.088L326.41 385.593C341.217 377.797 357.709 373.718 374.456 373.711C383.687 373.707 391.131 366.096 390.816 356.831C390.515 347.969 382.913 341.194 374.014 341.197H99.0278C90.1272 341.201 82.532 348.098 82.2383 356.96C81.9316 366.225 89.3819 373.831 98.6125 373.827C115.359 373.82 131.855 377.885 146.668 385.668L151.409 388.159C166.222 395.943 182.718 400.007 199.465 400.001L273.627 399.969C290.373 399.962 306.865 395.883 321.672 388.088Z" fill="#FFE645"/>
<path d="M374.013 341.197H341.82C350.72 341.193 358.322 347.969 358.622 356.831C358.937 366.096 351.493 373.707 342.262 373.711C325.515 373.718 309.023 377.796 294.217 385.593L289.478 388.088C274.671 395.884 258.179 399.962 241.432 399.969L198.573 399.987C198.87 399.99 199.166 400.001 199.463 400L273.625 399.969C290.372 399.961 306.864 395.883 321.671 388.087L326.41 385.592C341.216 377.796 357.708 373.717 374.456 373.71C383.686 373.706 391.13 366.095 390.815 356.83C390.515 347.969 382.913 341.193 374.013 341.197Z" fill="#F5D60C"/>
</svg>
