<svg width="272" height="504" viewBox="0 0 272 504" fill="none" xmlns="http://www.w3.org/2000/svg">
<path d="M263.467 494.933L220.8 452.267L178.133 494.933" fill="#B3B3B3"/>
<path d="M161.067 102.4H144V221.867H161.067V102.4Z" fill="#008FCF"/>
<path d="M152.533 136.533H33.0667V153.6H152.533V136.533Z" fill="#008FCF"/>
<path d="M152.533 179.2H-43.7334V196.267H152.533V179.2Z" fill="#008FCF"/>
<path d="M24.5333 162.133H7.46666V290.133H24.5333V162.133Z" fill="#008FCF"/>
<path d="M92.8 170.667H75.7333V221.867H92.8V170.667Z" fill="#008FCF"/>
<path d="M12.4916 281.6L46.625 247.825H75.7333V210.492H161.067V503.467H-60.8V281.6H12.4916Z" fill="#E6E6E6"/>
<path d="M126.933 281.6H109.867V298.667H126.933V281.6Z" fill="#00C9DD"/>
<path d="M92.8 281.6H75.7334V298.667H92.8V281.6Z" fill="#00C9DD"/>
<path d="M58.6667 281.6H41.6V298.667H58.6667V281.6Z" fill="#00C9DD"/>
<path d="M126.933 315.733H109.867V332.8H126.933V315.733Z" fill="#00C9DD"/>
<path d="M92.8 315.733H75.7334V332.8H92.8V315.733Z" fill="#00C9DD"/>
<path d="M58.6667 315.733H41.6V332.8H58.6667V315.733Z" fill="#00C9DD"/>
<path d="M24.5333 315.733H7.46666V332.8H24.5333V315.733Z" fill="#00C9DD"/>
<path d="M126.933 349.867H109.867V366.933H126.933V349.867Z" fill="#00C9DD"/>
<path d="M92.8 349.867H75.7334V366.933H92.8V349.867Z" fill="#00C9DD"/>
<path d="M58.6667 349.867H41.6V366.933H58.6667V349.867Z" fill="#00C9DD"/>
<path d="M24.5333 349.867H7.46666V366.933H24.5333V349.867Z" fill="#00C9DD"/>
<path d="M126.933 384H109.867V401.067H126.933V384Z" fill="#00C9DD"/>
<path d="M92.8 384H75.7334V401.067H92.8V384Z" fill="#00C9DD"/>
<path d="M58.6667 384H41.6V401.067H58.6667V384Z" fill="#00C9DD"/>
<path d="M24.5333 384H7.46666V401.067H24.5333V384Z" fill="#00C9DD"/>
<path d="M126.933 418.133H109.867V435.2H126.933V418.133Z" fill="#00C9DD"/>
<path d="M92.8 418.133H75.7334V435.2H92.8V418.133Z" fill="#00C9DD"/>
<path d="M58.6667 418.133H41.6V435.2H58.6667V418.133Z" fill="#00C9DD"/>
<path d="M24.5333 418.133H7.46666V435.2H24.5333V418.133Z" fill="#00C9DD"/>
<path d="M126.933 452.267H109.867V469.333H126.933V452.267Z" fill="#00C9DD"/>
<path d="M92.8 452.267H75.7334V469.333H92.8V452.267Z" fill="#00C9DD"/>
<path d="M58.6667 452.267H41.6V469.333H58.6667V452.267Z" fill="#00C9DD"/>
<path d="M24.5333 452.267H7.46666V469.333H24.5333V452.267Z" fill="#00C9DD"/>
<path d="M263.467 298.667H195.2V332.8L212.267 349.867H246.4L263.467 332.8V298.667Z" fill="#3448FF"/>
<path d="M263.467 298.667L237.867 264.533H220.8L195.2 298.667" fill="#B3B3B3"/>
<path d="M-77.8667 17.0667H263.467C268.179 17.0667 272 20.8875 272 25.6V59.7333C272 64.4458 268.179 68.2667 263.467 68.2667H-77.8667C-82.5792 68.2667 -86.4 64.4458 -86.4 59.7333V25.6C-86.4 20.8875 -82.5792 17.0667 -77.8667 17.0667ZM144 35.8417L120.958 51.2H167.042L144 35.8417ZM195.2 49.4917L218.242 34.1333H172.158L195.2 49.4917ZM115.842 34.1333H69.7583L92.8 49.4917L115.842 34.1333ZM41.6 35.8417L18.5583 51.2H64.6417L41.6 35.8417ZM13.4417 34.1333H-32.6417L-9.60001 49.4917L13.4417 34.1333ZM254.933 34.1333H248.958L223.358 51.2H254.933V34.1333ZM-69.3333 51.2H-37.7584L-63.3583 34.1333H-69.3333V51.2Z" fill="#3448FF"/>
<path d="M229.333 273.067C243.471 273.067 254.933 261.604 254.933 247.467H237.867C237.867 252.179 234.046 256 229.333 256C224.621 256 220.8 252.179 220.8 247.467C220.8 242.754 224.621 238.933 229.333 238.933C234.046 238.933 237.867 235.113 237.867 230.4V59.7333H220.8V223.325C209.038 227.475 201.979 239.5 204.088 251.796C206.196 264.087 216.858 273.075 229.333 273.067Z" fill="#008FCF"/>
<path d="M272 486.4H-240V503.467H272V486.4Z" fill="#603813"/>
</svg>
